<svg height="464pt" viewBox="0 -19 464 464" width="464pt" xmlns="http://www.w3.org/2000/svg"><path d="m272 42.558594-1.9375-7.757813c-10.699219 3.394531-19.914062 10.347657-26.117188 19.703125l-18.585937-18.582031c-12.511719-12.480469-32.765625-12.480469-45.28125 0l22.640625 22.636719c9.289062 9.3125 23.34375 11.960937 35.386719 6.664062-4.265625 10.585938-6.339844 21.925782-6.105469 33.335938h16c0-40.664063 24.960938-48 26.023438-48.253906zm0 0" fill="#4e901e"/><path d="m376.960938 117.199219h-.082032c-38.875-8.246094-77.082031 16.570312-85.359375 55.441406-3.199219 20.339844-4.246093 40.960937-3.121093 61.519531.082031.121094.082031.277344 0 .398438 1.921874 51.28125 12.722656 111.921875 38.640624 117.363281 30.960938 6.636719 74.160157-67.363281 94.640626-117.363281 4.464843-10.34375 8.050781-21.050782 10.71875-32 8.246093-38.875-16.566407-77.082032-55.4375-85.359375zm0 0" fill="#ff6243"/><path d="m376.878906 125.121094c-2.320312-1.042969-39.519531-18.320313-50.078125-50.960938-10.960937-33.519531 10.640625-70.71875 10.640625-70.71875 12.9375 6.183594 24.625 14.699219 34.480469 25.117188-6.253906 8.074218-10.675781 17.410156-12.960937 27.363281-7.121094 33.519531 16.398437 67.117187 17.917968 69.199219zm0 0" fill="#9cdd05"/><path d="m443.519531 99.039062c-23.679687 26.242188-66.558593 26.160157-66.558593 26.160157l.078124-.078125c2.242188-1.28125 37.359376-22.402344 44.480469-55.921875 2-10.003907 1.78125-20.328125-.640625-30.238281 13.261719-5.5 27.414063-8.539063 41.761719-8.960938 0 0 4.558594 42.800781-19.121094 69.039062zm0 0" fill="#9cdd05"/><path d="m376.878906 125.121094c-1.519531-2.082032-25.039062-35.679688-17.917968-69.199219 2.285156-9.953125 6.707031-19.289063 12.960937-27.363281 8.675781-11.417969 19.421875-21.105469 31.679687-28.558594 8.105469 11.8125 13.964844 25.019531 17.277344 38.960938 2.421875 9.910156 2.640625 20.234374.640625 30.238281-7.121093 33.519531-42.238281 54.640625-44.480469 55.921875l-.078124.078125h-.082032zm0 0" fill="#4e901e"/><path d="m200 146.558594c-5.902344 0-11.773438.835937-17.441406 2.480468-6.902344-31.984374-36.820313-53.613281-69.355469-50.136718-32.539063 3.476562-57.214844 30.933594-57.203125 63.65625.023438 2.703125.210938 5.402344.558594 8.082031-.160156 0-.398438-.082031-.558594-.082031-22.089844 0-40 17.910156-40 40-.035156 8.660156 2.777344 17.09375 8 24h235.359375c3.058594-7.632813 4.632813-15.777344 4.640625-24 0-35.34375-28.652344-64-64-64zm0 0" fill="#c2fb3b"/><path d="m240.078125 98.558594c8 0 15.441406-4.71875 23.921875-4.71875 35.347656 0 64 28.652344 64 64 0 30.082031-20.71875 72.640625-48.640625 84.640625-4.828125 2.179687-10.0625 3.324219-15.359375 3.359375-8.480469 0-16-4.71875-24-4.71875s-15.519531 4.71875-24 4.71875c-15.429688-1.160156-29.550781-9.097656-38.558594-21.679688-14.476562-17.742187-23.285156-39.429687-25.28125-62.238281-.082031-1.363281-.160156-2.722656-.160156-4.082031 0-35.347656 28.652344-64 64-64 8.480469 0 16 4.71875 24 4.71875zm0 0" fill="#d80027"/><path d="m120.144531 242.558594h-.289062c-4.339844 0-7.855469-3.515625-7.855469-7.855469v-48.144531c.007812-6.894532-4.40625-13.023438-10.953125-15.199219-3.125-1.207031-5.148437-4.257813-5.046875-7.605469-.023438-2.492187 1.140625-4.84375 3.132812-6.339844 1.996094-1.492187 4.578126-1.945312 6.964844-1.222656 13.070313 4.363282 21.886719 16.589844 21.902344 30.367188v48.144531c0 4.339844-3.515625 7.855469-7.855469 7.855469zm0 0" fill="#91dc5a"/><path d="m384 146.558594c8.835938 0 16 7.164062 16 16v8c0 8.839844-7.164062 16-16 16s-16-7.160156-16-16v-8c0-8.835938 7.164062-16 16-16zm0 0" fill="#ff856d"/><path d="m214.140625 120.417969c-6.246094-6.25-17.644531-4.984375-25.457031 2.828125-7.808594 7.808594-9.074219 19.207031-2.828125 25.457031 6.25 6.246094 17.648437 4.980469 25.457031-2.832031 7.8125-7.808594 9.078125-19.207032 2.828125-25.453125zm0 0" fill="#e13957"/><path d="m0 234.558594c.0195312 22.308594 4.652344 44.367187 13.601562 64.800781 32.078126 74.160156 117.757813 127.199219 218.398438 127.199219 128.160156 0 232-86 232-192zm0 0" fill="#b39a7c"/><path d="m463.136719 250.558594c.527343-5.277344.863281-10.605469.863281-16h-464c0 5.394531.3125 10.722656.800781 16zm0 0" fill="#a78966"/><g fill="#c4b099"><path d="m52 258.558594h72c11.046875 0 20 8.957031 20 20 0 11.046875-8.953125 20-20 20h-72c-11.046875 0-20-8.953125-20-20 0-11.042969 8.953125-20 20-20zm0 0"/><path d="m180 258.558594h8c11.046875 0 20 8.957031 20 20 0 11.046875-8.953125 20-20 20h-8c-11.046875 0-20-8.953125-20-20 0-11.042969 8.953125-20 20-20zm0 0"/></g></svg>